<mxfile host="app.diagrams.net" modified="2022-04-11T10:05:18.529Z" agent="5.0 (Windows NT 10.0; Win64; x64) AppleWebKit/537.36 (KHTML, like Gecko) Chrome/100.0.4896.75 Safari/537.36" etag="zPHQBirWHiTS0SMA4mz9" version="17.1.3" type="github">
  <diagram id="LdRha5qaeh0__HsLjBR-" name="第 1 页">
    <mxGraphModel dx="1042" dy="755" grid="1" gridSize="10" guides="1" tooltips="1" connect="1" arrows="1" fold="1" page="1" pageScale="1" pageWidth="827" pageHeight="1169" math="0" shadow="0">
      <root>
        <mxCell id="0" />
        <mxCell id="1" parent="0" />
        <mxCell id="3CSdWxvQLaXFoRJKZU7u-1" value="Client" style="shape=umlLifeline;perimeter=lifelinePerimeter;whiteSpace=wrap;html=1;container=1;collapsible=0;recursiveResize=0;outlineConnect=0;" vertex="1" parent="1">
          <mxGeometry x="50" y="70" width="100" height="300" as="geometry" />
        </mxCell>
        <mxCell id="3CSdWxvQLaXFoRJKZU7u-5" value="Put | Get" style="html=1;verticalAlign=bottom;endArrow=block;rounded=0;" edge="1" parent="3CSdWxvQLaXFoRJKZU7u-1" target="3CSdWxvQLaXFoRJKZU7u-2">
          <mxGeometry width="80" relative="1" as="geometry">
            <mxPoint x="50" y="100" as="sourcePoint" />
            <mxPoint x="130" y="100" as="targetPoint" />
          </mxGeometry>
        </mxCell>
        <mxCell id="3CSdWxvQLaXFoRJKZU7u-2" value="Server-1" style="shape=umlLifeline;perimeter=lifelinePerimeter;whiteSpace=wrap;html=1;container=1;collapsible=0;recursiveResize=0;outlineConnect=0;" vertex="1" parent="1">
          <mxGeometry x="200" y="70" width="100" height="300" as="geometry" />
        </mxCell>
        <mxCell id="3CSdWxvQLaXFoRJKZU7u-6" value="AppendEntity" style="html=1;verticalAlign=bottom;endArrow=block;rounded=0;" edge="1" parent="3CSdWxvQLaXFoRJKZU7u-2" target="3CSdWxvQLaXFoRJKZU7u-3">
          <mxGeometry width="80" relative="1" as="geometry">
            <mxPoint x="50" y="140" as="sourcePoint" />
            <mxPoint x="130" y="140" as="targetPoint" />
          </mxGeometry>
        </mxCell>
        <mxCell id="3CSdWxvQLaXFoRJKZU7u-3" value="Server-2" style="shape=umlLifeline;perimeter=lifelinePerimeter;whiteSpace=wrap;html=1;container=1;collapsible=0;recursiveResize=0;outlineConnect=0;" vertex="1" parent="1">
          <mxGeometry x="370" y="70" width="100" height="300" as="geometry" />
        </mxCell>
        <mxCell id="3CSdWxvQLaXFoRJKZU7u-4" value="Server3" style="shape=umlLifeline;perimeter=lifelinePerimeter;whiteSpace=wrap;html=1;container=1;collapsible=0;recursiveResize=0;outlineConnect=0;" vertex="1" parent="1">
          <mxGeometry x="530" y="70" width="100" height="300" as="geometry" />
        </mxCell>
        <mxCell id="3CSdWxvQLaXFoRJKZU7u-7" value="AppendEntity" style="html=1;verticalAlign=bottom;endArrow=block;rounded=0;" edge="1" parent="1">
          <mxGeometry x="0.4568" width="80" relative="1" as="geometry">
            <mxPoint x="250" y="211" as="sourcePoint" />
            <mxPoint x="579.5" y="211" as="targetPoint" />
            <mxPoint as="offset" />
          </mxGeometry>
        </mxCell>
        <mxCell id="3CSdWxvQLaXFoRJKZU7u-8" value="AE Reply" style="html=1;verticalAlign=bottom;endArrow=open;dashed=1;endSize=8;rounded=0;" edge="1" parent="1" target="3CSdWxvQLaXFoRJKZU7u-2">
          <mxGeometry relative="1" as="geometry">
            <mxPoint x="420" y="250" as="sourcePoint" />
            <mxPoint x="340" y="250" as="targetPoint" />
          </mxGeometry>
        </mxCell>
        <mxCell id="3CSdWxvQLaXFoRJKZU7u-9" value="AE Reply" style="html=1;verticalAlign=bottom;endArrow=open;dashed=1;endSize=8;rounded=0;" edge="1" parent="1">
          <mxGeometry x="-0.4568" y="2" relative="1" as="geometry">
            <mxPoint x="578.5" y="290" as="sourcePoint" />
            <mxPoint x="249" y="290" as="targetPoint" />
            <mxPoint as="offset" />
          </mxGeometry>
        </mxCell>
        <mxCell id="3CSdWxvQLaXFoRJKZU7u-10" value="Success" style="html=1;verticalAlign=bottom;endArrow=open;dashed=1;endSize=8;rounded=0;" edge="1" parent="1">
          <mxGeometry relative="1" as="geometry">
            <mxPoint x="250" y="258" as="sourcePoint" />
            <mxPoint x="100" y="258" as="targetPoint" />
          </mxGeometry>
        </mxCell>
        <mxCell id="3CSdWxvQLaXFoRJKZU7u-11" value="Commit Log Entry" style="html=1;verticalAlign=bottom;endArrow=block;rounded=0;" edge="1" parent="1">
          <mxGeometry x="0.4568" width="80" relative="1" as="geometry">
            <mxPoint x="249" y="270" as="sourcePoint" />
            <mxPoint x="578.5" y="270" as="targetPoint" />
            <mxPoint as="offset" />
          </mxGeometry>
        </mxCell>
        <mxCell id="3CSdWxvQLaXFoRJKZU7u-12" value="Commit Log Entry" style="html=1;verticalAlign=bottom;endArrow=block;rounded=0;" edge="1" parent="1">
          <mxGeometry width="80" relative="1" as="geometry">
            <mxPoint x="250" y="270" as="sourcePoint" />
            <mxPoint x="419.5" y="270" as="targetPoint" />
          </mxGeometry>
        </mxCell>
      </root>
    </mxGraphModel>
  </diagram>
</mxfile>
